<?xml version="1.0" standalone="no"?>
<svg xmlns:xlink="http://www.w3.org/1999/xlink" id="wave" style="transform:rotate(0deg); transition: 0.3s" viewBox="0 0 1440 490" version="1.1" xmlns="http://www.w3.org/2000/svg"><defs><linearGradient id="sw-gradient-0" x1="0" x2="0" y1="1" y2="0"><stop stop-color="rgba(193.657, 255, 172.375, 1)" offset="0%"/><stop stop-color="rgba(255, 255, 255, 1)" offset="100%"/></linearGradient></defs><path style="transform:translate(0, 0px); opacity:1" fill="url(#sw-gradient-0)" d="M0,245L60,220.5C120,196,240,147,360,138.8C480,131,600,163,720,204.2C840,245,960,294,1080,261.3C1200,229,1320,114,1440,73.5C1560,33,1680,65,1800,138.8C1920,212,2040,327,2160,383.8C2280,441,2400,441,2520,408.3C2640,376,2760,310,2880,236.8C3000,163,3120,82,3240,49C3360,16,3480,33,3600,32.7C3720,33,3840,16,3960,73.5C4080,131,4200,261,4320,294C4440,327,4560,261,4680,253.2C4800,245,4920,294,5040,302.2C5160,310,5280,278,5400,245C5520,212,5640,180,5760,163.3C5880,147,6000,147,6120,122.5C6240,98,6360,49,6480,65.3C6600,82,6720,163,6840,171.5C6960,180,7080,114,7200,122.5C7320,131,7440,212,7560,253.2C7680,294,7800,294,7920,269.5C8040,245,8160,196,8280,147C8400,98,8520,49,8580,24.5L8640,0L8640,490L8580,490C8520,490,8400,490,8280,490C8160,490,8040,490,7920,490C7800,490,7680,490,7560,490C7440,490,7320,490,7200,490C7080,490,6960,490,6840,490C6720,490,6600,490,6480,490C6360,490,6240,490,6120,490C6000,490,5880,490,5760,490C5640,490,5520,490,5400,490C5280,490,5160,490,5040,490C4920,490,4800,490,4680,490C4560,490,4440,490,4320,490C4200,490,4080,490,3960,490C3840,490,3720,490,3600,490C3480,490,3360,490,3240,490C3120,490,3000,490,2880,490C2760,490,2640,490,2520,490C2400,490,2280,490,2160,490C2040,490,1920,490,1800,490C1680,490,1560,490,1440,490C1320,490,1200,490,1080,490C960,490,840,490,720,490C600,490,480,490,360,490C240,490,120,490,60,490L0,490Z"/><defs><linearGradient id="sw-gradient-1" x1="0" x2="0" y1="1" y2="0"><stop stop-color="rgba(101, 183, 65, 1)" offset="0%"/><stop stop-color="rgba(193, 242, 176, 1)" offset="100%"/></linearGradient></defs><path style="transform:translate(0, 50px); opacity:0.9" fill="url(#sw-gradient-1)" d="M0,98L60,147C120,196,240,294,360,277.7C480,261,600,131,720,106.2C840,82,960,163,1080,179.7C1200,196,1320,147,1440,155.2C1560,163,1680,229,1800,236.8C1920,245,2040,196,2160,179.7C2280,163,2400,180,2520,212.3C2640,245,2760,294,2880,269.5C3000,245,3120,147,3240,138.8C3360,131,3480,212,3600,253.2C3720,294,3840,294,3960,277.7C4080,261,4200,229,4320,187.8C4440,147,4560,98,4680,138.8C4800,180,4920,310,5040,351.2C5160,392,5280,343,5400,294C5520,245,5640,196,5760,179.7C5880,163,6000,180,6120,155.2C6240,131,6360,65,6480,73.5C6600,82,6720,163,6840,212.3C6960,261,7080,278,7200,302.2C7320,327,7440,359,7560,326.7C7680,294,7800,196,7920,163.3C8040,131,8160,163,8280,196C8400,229,8520,261,8580,277.7L8640,294L8640,490L8580,490C8520,490,8400,490,8280,490C8160,490,8040,490,7920,490C7800,490,7680,490,7560,490C7440,490,7320,490,7200,490C7080,490,6960,490,6840,490C6720,490,6600,490,6480,490C6360,490,6240,490,6120,490C6000,490,5880,490,5760,490C5640,490,5520,490,5400,490C5280,490,5160,490,5040,490C4920,490,4800,490,4680,490C4560,490,4440,490,4320,490C4200,490,4080,490,3960,490C3840,490,3720,490,3600,490C3480,490,3360,490,3240,490C3120,490,3000,490,2880,490C2760,490,2640,490,2520,490C2400,490,2280,490,2160,490C2040,490,1920,490,1800,490C1680,490,1560,490,1440,490C1320,490,1200,490,1080,490C960,490,840,490,720,490C600,490,480,490,360,490C240,490,120,490,60,490L0,490Z"/><defs><linearGradient id="sw-gradient-2" x1="0" x2="0" y1="1" y2="0"><stop stop-color="rgba(101, 183, 65, 1)" offset="0%"/><stop stop-color="rgba(101, 183, 65, 1)" offset="100%"/></linearGradient></defs><path style="transform:translate(0, 100px); opacity:0.8" fill="url(#sw-gradient-2)" d="M0,343L60,343C120,343,240,343,360,318.5C480,294,600,245,720,261.3C840,278,960,359,1080,351.2C1200,343,1320,245,1440,212.3C1560,180,1680,212,1800,236.8C1920,261,2040,278,2160,236.8C2280,196,2400,98,2520,98C2640,98,2760,196,2880,253.2C3000,310,3120,327,3240,343C3360,359,3480,376,3600,318.5C3720,261,3840,131,3960,65.3C4080,0,4200,0,4320,8.2C4440,16,4560,33,4680,32.7C4800,33,4920,16,5040,65.3C5160,114,5280,229,5400,302.2C5520,376,5640,408,5760,351.2C5880,294,6000,147,6120,122.5C6240,98,6360,196,6480,269.5C6600,343,6720,392,6840,383.8C6960,376,7080,310,7200,277.7C7320,245,7440,245,7560,228.7C7680,212,7800,180,7920,179.7C8040,180,8160,212,8280,212.3C8400,212,8520,180,8580,163.3L8640,147L8640,490L8580,490C8520,490,8400,490,8280,490C8160,490,8040,490,7920,490C7800,490,7680,490,7560,490C7440,490,7320,490,7200,490C7080,490,6960,490,6840,490C6720,490,6600,490,6480,490C6360,490,6240,490,6120,490C6000,490,5880,490,5760,490C5640,490,5520,490,5400,490C5280,490,5160,490,5040,490C4920,490,4800,490,4680,490C4560,490,4440,490,4320,490C4200,490,4080,490,3960,490C3840,490,3720,490,3600,490C3480,490,3360,490,3240,490C3120,490,3000,490,2880,490C2760,490,2640,490,2520,490C2400,490,2280,490,2160,490C2040,490,1920,490,1800,490C1680,490,1560,490,1440,490C1320,490,1200,490,1080,490C960,490,840,490,720,490C600,490,480,490,360,490C240,490,120,490,60,490L0,490Z"/></svg>